<svg xmlns="http://www.w3.org/2000/svg" width="50.994" height="41.723" viewBox="0 0 50.994 41.723"><path d="M7.795,40.769a3.336,3.336,0,0,1-2.434-1.043,3.336,3.336,0,0,1-1.043-2.434V9.477A3.336,3.336,0,0,1,5.361,7.043,3.336,3.336,0,0,1,7.795,6H47.2a3.336,3.336,0,0,1,2.434,1.043,3.336,3.336,0,0,1,1.043,2.434V37.292A3.565,3.565,0,0,1,47.2,40.769Zm0-3.477H47.2V9.477H7.795V37.292ZM3.738,47.723a1.739,1.739,0,1,1,0-3.477H51.256a1.739,1.739,0,1,1,0,3.477ZM7.795,37.292h0V9.477h0V37.292Z" transform="translate(-2 -6)"/></svg>