<svg xmlns="http://www.w3.org/2000/svg" width="34.344" height="53.969" viewBox="0 0 34.344 53.969"><path d="M27.172,51.37a1.783,1.783,0,1,0-1.319-.521A1.787,1.787,0,0,0,27.172,51.37ZM13.68,43.09H40.664V11.2H13.68Zm0,12.879a3.53,3.53,0,0,1-2.576-1.1A3.53,3.53,0,0,1,10,52.29V5.68A3.53,3.53,0,0,1,11.1,3.1,3.53,3.53,0,0,1,13.68,2H40.664A3.53,3.53,0,0,1,43.24,3.1a3.53,3.53,0,0,1,1.1,2.576V52.29a3.773,3.773,0,0,1-3.68,3.68Zm0-48.45H40.664V5.68H13.68Zm0-1.84h0v0Zm0,41.09v5.52H40.664V46.77Zm0,5.52h0v0Z" transform="translate(-10 -2)"/></svg>