<svg xmlns="http://www.w3.org/2000/svg" width="39.25" height="49.063" viewBox="0 0 39.25 49.063"><path d="M11.68,53.063a3.53,3.53,0,0,1-2.576-1.1A3.53,3.53,0,0,1,8,49.383V17.492a3.53,3.53,0,0,1,1.1-2.576,3.53,3.53,0,0,1,2.576-1.1h6.746V13.2a8.883,8.883,0,0,1,2.668-6.532A8.883,8.883,0,0,1,27.625,4a8.883,8.883,0,0,1,6.532,2.668A8.883,8.883,0,0,1,36.825,13.2v.613h6.746a3.773,3.773,0,0,1,3.68,3.68V49.383a3.773,3.773,0,0,1-3.68,3.68ZM22.106,13.2v.613H33.145V13.2a5.446,5.446,0,0,0-5.52-5.52,5.446,5.446,0,0,0-5.52,5.52ZM11.68,49.383H43.571V17.492H36.825v5.52a1.84,1.84,0,1,1-3.68,0v-5.52H22.106v5.52a1.84,1.84,0,1,1-3.68,0v-5.52H11.68V49.383Zm0,0h0V17.492h0V49.383Z" transform="translate(-8 -4)"/></svg>