<svg xmlns="http://www.w3.org/2000/svg" xmlns:xlink="http://www.w3.org/1999/xlink" width="850.115" height="234.244" viewBox="0 0 850.115 234.244"><defs><clipPath id="a"><path d="M0,156.6H850.115V-77.649H0Z" transform="translate(0 77.649)"/></clipPath></defs><g transform="translate(0 77.648)"><g transform="translate(0 -77.649)" clip-path="url(#a)"><g transform="translate(119.267 188.806)"><path d="M9.858,17.307-.085-8.1h-4.8L9.809,28.4,20.039,2.465,30.32,28.4,44.969-8.1h-4.8l-9.943,25.41L20.039-8.582ZM49.627,27.827h4.419V-8.1H49.627Zm0-35.929M81.664,34.551q-2.688,0-2.688-2.208a3.144,3.144,0,0,1,1.032-2.308,14.259,14.259,0,0,1,3.385-2.208h.483V23.935H66.056V11.159H81.761v-3.8H66.056V-4.211h17.82V-8.1H61.685V27.827h18.2q-4.082,2.018-4.082,5a3.494,3.494,0,0,0,1.439,2.953,6.086,6.086,0,0,0,3.747,1.08,9.273,9.273,0,0,0,3.8-.766l-.431-2.115a6.357,6.357,0,0,1-2.691.576M92.473-3.635q-4.9,4.946-4.9,13.5t4.947,13.5A17.287,17.287,0,0,0,105.3,28.306a17.2,17.2,0,0,0,10.854-3.457,14.471,14.471,0,0,0,5.475-9.367l-4.561-.383a10.691,10.691,0,0,1-3.988,6.842,13.891,13.891,0,0,1-17.388-1.367q-3.647-3.8-3.65-10.712,0-6.724,3.6-10.616a12.243,12.243,0,0,1,9.415-3.889,12.5,12.5,0,0,1,8.021,2.591,10.673,10.673,0,0,1,3.94,7.207l4.561-.434a14.168,14.168,0,0,0-5.379-9.7,17.084,17.084,0,0,0-11-3.6A17.227,17.227,0,0,0,92.473-3.635M127.054-8.1V27.827h22.239V23.935h-17.82V11.159h15.708v-3.8H131.473V-4.211h17.82V-8.1Zm42.557,24.64a8.674,8.674,0,0,1-1.729,5.837,7.22,7.22,0,0,1-10.064-.1,9.32,9.32,0,0,1-2.039-5.886l-4.419.721A11.937,11.937,0,0,0,154.7,25.3a11.1,11.1,0,0,0,8.142,3,10.816,10.816,0,0,0,8.215-3.122q2.977-3.122,2.977-8.742V-8.1h-4.419ZM188.39-8.1v3.892h13.355V27.827h4.419V-4.211h13.352V-8.1Zm35.3,0V27.827h22.239V23.935h-17.82V11.159h15.705v-3.8H228.114V-4.211h17.82V-8.1ZM267.21,13.464h11.816q-.529,5.331-3.65,8.118a12.013,12.013,0,0,1-8.311,2.787,12.448,12.448,0,0,1-9.46-3.8q-3.557-3.842-3.557-10.712,0-6.914,3.557-10.712a12.253,12.253,0,0,1,9.46-3.792A12.5,12.5,0,0,1,274.99-2.1a10.406,10.406,0,0,1,3.892,6.966l4.564-.721a14.265,14.265,0,0,0-5.572-9.319,17.356,17.356,0,0,0-10.761-3.409,17,17,0,0,0-12.631,4.947q-4.9,4.946-4.9,13.5t4.947,13.5a17.1,17.1,0,0,0,12.631,4.947q7.589,0,12.058-4.61,4.511-4.661,4.513-12.634V9.576H267.21Zm20.845-3.6q0,8.408,5.14,13.448a19.269,19.269,0,0,0,25.889,0q5.141-5.041,5.14-13.448t-5.14-13.4a17.59,17.59,0,0,0-12.921-5.044A17.756,17.756,0,0,0,293.2-3.538q-5.14,5-5.14,13.4M315.915-.754q3.842,3.941,3.843,10.616,0,6.629-3.843,10.616a13.125,13.125,0,0,1-9.75,3.892,13.282,13.282,0,0,1-9.8-3.892q-3.846-3.987-3.843-10.616,0-6.674,3.843-10.616a14.228,14.228,0,0,1,19.548,0m12.32,24.233a2.812,2.812,0,0,0-.793,1.994,2.609,2.609,0,0,0,.818,1.946,2.723,2.723,0,0,0,1.97.79,6.736,6.736,0,0,1-2.836,4.9v1.873a9.948,9.948,0,0,0,5.43-9.126,3.684,3.684,0,0,0-.7-2.329,2.337,2.337,0,0,0-1.946-.89,2.567,2.567,0,0,0-1.946.842M352.082-3.635q-4.9,4.946-4.9,13.5t4.947,13.5a18.883,18.883,0,0,0,23.633,1.49,14.471,14.471,0,0,0,5.475-9.367l-4.564-.383a10.688,10.688,0,0,1-3.985,6.842A13.891,13.891,0,0,1,355.3,20.575q-3.652-3.8-3.65-10.712,0-6.724,3.6-10.616a12.239,12.239,0,0,1,9.415-3.889,12.5,12.5,0,0,1,8.021,2.591,10.682,10.682,0,0,1,3.937,7.207l4.564-.434a14.168,14.168,0,0,0-5.379-9.7,17.092,17.092,0,0,0-11-3.6,17.232,17.232,0,0,0-12.728,4.947m32.952,13.5q0,8.408,5.137,13.448a19.269,19.269,0,0,0,25.889,0Q421.2,18.27,421.2,9.862t-5.14-13.4A17.591,17.591,0,0,0,403.14-8.582a17.756,17.756,0,0,0-12.969,5.044q-5.141,5-5.137,13.4M412.89-.754q3.842,3.941,3.843,10.616,0,6.629-3.843,10.616a13.12,13.12,0,0,1-9.75,3.892,13.287,13.287,0,0,1-9.8-3.892Q389.5,16.491,389.5,9.862q0-6.674,3.843-10.616a14.228,14.228,0,0,1,19.548,0M437.772-8.1V27.827H460.2V23.935h-18.01V-8.1Zm51.393,22.384q0,4.851-2.618,7.469a9.907,9.907,0,0,1-7.325,2.619q-4.756,0-7.349-2.594t-2.594-7.494V-8.1H464.91V14.33q0,6.629,3.816,10.3t10.5,3.674q6.679,0,10.5-3.674t3.819-10.3V-8.1h-4.371ZM515.63,27.827a11.807,11.807,0,0,0,8-2.594,9.189,9.189,0,0,0,3-7.349,9.891,9.891,0,0,0-1.535-5.644,7.865,7.865,0,0,0-4.085-3.146q4.082-2.014,4.085-7.635a8.815,8.815,0,0,0-2.908-7.038,11.494,11.494,0,0,0-7.8-2.522H500.933V27.827ZM518.8-2.651a5.474,5.474,0,0,1,1.825,4.4q0,5.765-5.572,5.765H505.3V-4.211h8.549a7.378,7.378,0,0,1,4.947,1.56m1.511,15.587a5.944,5.944,0,0,1,1.849,4.706,5.784,5.784,0,0,1-1.895,4.709,7.816,7.816,0,0,1-5.165,1.584h-9.8V11.3h10.181a7.017,7.017,0,0,1,4.827,1.632m12.61,14.89h4.419V-8.1h-4.419Zm0-35.929,14.359,2.45A9.451,9.451,0,0,0,544.162,1.6a10.409,10.409,0,0,0,1.294,4.854,7.817,7.817,0,0,0,3.508,2.881,22.523,22.523,0,0,0,3.074,1.2l3.747.959a31.618,31.618,0,0,1,5.858,1.732,5.755,5.755,0,0,1,2.066,1.152,4.885,4.885,0,0,1,1.584,3.8,5.415,5.415,0,0,1-2.232,4.682,10.2,10.2,0,0,1-6.076,1.608A10.621,10.621,0,0,1,550.6,22.59a6.52,6.52,0,0,1-2.833-4.993l-4.419.238a9.558,9.558,0,0,0,4.033,7.687,15.823,15.823,0,0,0,9.608,2.784,15.036,15.036,0,0,0,9.174-2.594,9.114,9.114,0,0,0,3.6-7.78q0-4.371-2.929-6.389-2.982-2.113-9.463-3.6a31.7,31.7,0,0,1-5.379-1.584,6.858,6.858,0,0,1-1.873-1.1,5.081,5.081,0,0,1-1.49-3.747,5.6,5.6,0,0,1,2.066-4.516,8.642,8.642,0,0,1,5.717-1.729,8.5,8.5,0,0,1,5.548,1.7,6.337,6.337,0,0,1,2.281,4.73l4.468-.287a9.342,9.342,0,0,0-3.6-7.3,13.768,13.768,0,0,0-8.791-2.691q-5.91,0-9.032,2.929M573.605-8.1v3.892H592.1l-19.5,32.037h26.659V23.935H579.8L599.3-8.1Z" transform="translate(4.888 8.582)"/></g><g transform="translate(-0.001 0)"><path d="M46.362,1.131-2.858,57.794V1.131H-22.989V127.652H-2.858V87.9L12.533,70.142l41.441,57.511H78.668l-52.6-73.409L72.243,1.131Zm41.441,0V127.652h80.006V109.724H107.93V1.131ZM263.71,78.094q0,16.236-8.287,24.779t-23.512,8.54q-15.394,0-23.594-8.54t-8.205-24.779V1.131H179.984v77.3q0,24.191,13.786,37.549t38.14,13.364q24.358,0,38.143-13.364t13.786-37.549V1.131H263.71Zm94.553,49.559q18.1,0,28.924-9.388t10.824-26.472q0-11.5-5.327-19.367A27.537,27.537,0,0,0,378.39,61.517Q392.6,54.584,392.6,35.468q0-16.4-10.4-25.371t-28-8.966H304.475V127.652Zm8.456-104.11q5.412,4.656,5.412,13.28,0,17.422-17.422,17.422H324.434V18.891h27.4q9.471,0,14.884,4.652m4.99,52.859q5.665,4.91,5.668,14.378,0,9.3-5.753,14.124t-15.729,4.821H324.434V71.5H356.74q9.3,0,14.969,4.905m88.546-59.541q-17.6,17.6-17.593,47.531,0,30.11,17.762,47.531,17.589,17.421,45.5,17.422,23,0,38.9-12.347,16.241-12.344,19.79-33.829l-21.141-1.861q-2.711,14.209-12.857,22.158t-25.371,7.949q-18.44,0-30.276-12.347T463.13,64.392q0-21.48,11.5-34.336,11.5-12.688,30.448-12.685,15.39,0,25.627,8.287t12.77,23.005L564.446,46.8Q561.405,25.149,544.994,12.3,528.926-.559,505.753-.561q-28.078,0-45.5,17.422m131.254,0q-17.593,17.6-17.59,47.531,0,30.11,17.759,47.531,17.593,17.421,45.5,17.422,23,0,38.9-12.347,16.24-12.344,19.79-33.829l-21.141-1.861q-2.71,14.209-12.857,22.158T636.5,111.413q-18.44,0-30.279-12.347T594.384,64.392q0-21.48,11.5-34.336,11.5-12.688,30.448-12.685,15.39,0,25.624,8.287t12.773,23.005L695.7,46.8Q692.658,25.149,676.251,12.3,660.178-.559,637.01-.561q-28.078,0-45.5,17.422m131.257,0q-17.593,17.6-17.59,47.531,0,30.11,17.759,47.531,17.589,17.421,45.5,17.422,23,0,38.9-12.347,16.236-12.344,19.79-33.829l-21.144-1.861q-2.706,14.209-12.854,22.158t-25.374,7.949q-18.435,0-30.276-12.347T725.641,64.392q0-21.48,11.5-34.336,11.5-12.688,30.445-12.685,15.39,0,25.627,8.287t12.77,23.005L826.96,46.8Q823.915,25.149,807.508,12.3,791.435-.559,768.267-.561q-28.083,0-45.5,17.422" transform="translate(22.989 0.561)"/></g></g></g></svg>