<svg xmlns="http://www.w3.org/2000/svg" xmlns:xlink="http://www.w3.org/1999/xlink" width="955.103" height="161.656" viewBox="0 0 955.103 161.656"><defs><clipPath id="a"><path d="M0,110.685H955.1V-50.972H0Z" transform="translate(0 50.972)" fill="none"/></clipPath></defs><g transform="translate(0 50.973)"><g transform="translate(0 -50.972)" clip-path="url(#a)"><g transform="translate(186.045 43.352)"><path d="M23.147,21.476C9.215,18.155,6.732,15.821,6.732,10.921c0-4.63,4.361-7.745,10.84-7.745,6.283,0,12.515,2.366,19.045,7.237a.918.918,0,0,0,1.291-.2L44.713.62a.916.916,0,0,0-.174-1.24A41.161,41.161,0,0,0,17.781-9.89C2.735-9.89-7.772-.864-7.772,12.053c0,13.853,9.064,18.756,24.728,22.543,13.333,3.07,15.585,5.645,15.585,10.244,0,5.1-4.551,8.265-11.874,8.265-8.132,0-14.766-2.74-22.188-9.166a.964.964,0,0,0-.669-.219.913.913,0,0,0-.625.32l-7.631,9.08a.907.907,0,0,0,.092,1.265A45.482,45.482,0,0,0,20.359,66.165c16.209,0,26.685-8.858,26.685-22.565,0-11.589-6.92-18-23.9-22.124" transform="translate(10.66 9.89)"/></g><g transform="translate(248.583 60.977)"><path d="M21.8,0C14.774,0,9.011,2.769,4.257,8.439V2.055a.911.911,0,0,0-.91-.913H-9.13a.913.913,0,0,0-.91.913V72.979a.913.913,0,0,0,.91.913H3.347a.911.911,0,0,0,.91-.913V50.591A22.415,22.415,0,0,0,21.8,58.533c13.054,0,26.273-10.05,26.273-29.263S34.855,0,21.8,0M33.568,29.27c0,9.784-6.026,16.609-14.655,16.609-8.531,0-14.963-7.136-14.963-16.609s6.432-16.609,14.963-16.609c8.49,0,14.655,6.984,14.655,16.609" transform="translate(10.04)"/></g><g transform="translate(310.589 60.977)"><path d="M20.531,0C3.716,0-9.455,12.946-9.455,29.479c0,16.352,13.082,29.162,29.78,29.162,16.872,0,30.088-12.9,30.088-29.371C50.413,12.857,37.289,0,20.531,0m0,45.983c-8.944,0-15.686-7.187-15.686-16.714,0-9.568,6.508-16.511,15.48-16.511,9,0,15.788,7.187,15.788,16.72,0,9.565-6.552,16.5-15.581,16.5" transform="translate(9.455)"/></g><g transform="translate(371.424 47.167)"><path d="M23.921,10.236H10.192V-3.8a.911.911,0,0,0-.91-.913H-3.192a.916.916,0,0,0-.917.913V10.236h-6a.913.913,0,0,0-.91.913V21.872a.911.911,0,0,0,.91.913h6V50.53c0,11.211,5.582,16.894,16.587,16.894a22.752,22.752,0,0,0,11.687-2.908.9.9,0,0,0,.46-.79V53.518a.925.925,0,0,0-.434-.78A.913.913,0,0,0,23.3,52.7a15.722,15.722,0,0,1-7.323,1.767c-4,0-5.788-1.817-5.788-5.889V22.786H23.921a.911.911,0,0,0,.91-.913V11.15a.913.913,0,0,0-.91-.913" transform="translate(11.016 4.714)"/></g><g transform="translate(433.19 40.667)"><path d="M14.38,14.725V13c0-5.071,1.944-7.332,6.3-7.332a21.039,21.039,0,0,1,7.028,1.3.915.915,0,0,0,.825-.127.9.9,0,0,0,.377-.742V-4.418a.914.914,0,0,0-.644-.875A34.259,34.259,0,0,0,17.9-6.781C6.378-6.781.289-.292.289,11.975v2.642H-5.705a.916.916,0,0,0-.917.913V26.307a.916.916,0,0,0,.917.913H.289V70.013a.908.908,0,0,0,.907.913H13.672a.914.914,0,0,0,.913-.913V27.22H26.235L44.077,70c-2.027,4.494-4.018,5.388-6.736,5.388a14.388,14.388,0,0,1-6.879-1.95.9.9,0,0,0-1.269.422l-4.228,9.28a.909.909,0,0,0,.393,1.18,26.293,26.293,0,0,0,13.323,3.409c9.21,0,14.3-4.291,18.791-15.835L79.119,15.971a.914.914,0,0,0-.847-1.246H65.285a.91.91,0,0,0-.863.612l-13.308,38L36.542,15.312a.9.9,0,0,0-.853-.587Z" transform="translate(6.622 6.781)"/></g><g transform="translate(413.075 62.118)"><path d="M9.166,0H-3.311a.913.913,0,0,0-.91.913V55.342a.911.911,0,0,0,.91.913H9.166a.914.914,0,0,0,.913-.913V.913A.916.916,0,0,0,9.166,0" transform="translate(4.221)"/></g><g transform="translate(411.335 37.335)"><path d="M6.13,0a8.947,8.947,0,1,0,8.947,8.944A8.949,8.949,0,0,0,6.13,0" transform="translate(2.823)"/></g><g transform="translate(534.825 43.676)"><path d="M19.315.037-7.975-.017A.92.92,0,0,0-8.9.9V73.825a.92.92,0,0,0,.92.92H4.857a.92.92,0,0,0,.92-.92V51.31l12.08.054c18.277,0,30.091-10.136,30.091-26.028,0-15.369-11.24-25.3-28.632-25.3M5.776,14.426a.917.917,0,0,1,.917-.917l11.582.051c9.4,0,14.792,4.405,14.792,12.3,0,7.231-5.943,12.09-14.792,12.09L6.693,37.892a.919.919,0,0,1-.917-.917Z" transform="translate(8.895 0.017)"/></g><g transform="translate(632.902 60.444)"><path d="M19.035,0C3.184,0-8.766,12.711-8.766,29.571v.206c0,17.075,12.261,29.463,29.152,29.463,8.579,0,15.769-2.911,21.417-8.661.387-.39,1.215-1.335,1.782-1.992a.912.912,0,0,0-.089-1.281L36.05,40.7a.871.871,0,0,0-1.17.006c-.809.736-2.185,1.992-2.328,2.1A18.066,18.066,0,0,1,20.6,47.071c-7.612,0-13.168-4.6-14.719-12.093H46.028l.1-1.139c.1-1.167.187-2.252.187-3.333C46.31,15.321,37.874,0,19.035,0m-.108,12.169c8.132,0,11.953,6.337,12.9,12.619H5.75c1.4-7.7,6.489-12.619,13.177-12.619" transform="translate(8.766)"/></g><g transform="translate(694.388 60.444)"><path d="M44.7,0C37.3,0,31.233,2.927,26.209,8.944,22.8,3.162,16.993,0,9.711,0,1.941,0-2.829,3.758-6.127,7.691V2.061a.917.917,0,0,0-.917-.917H-19.669a.919.919,0,0,0-.917.917V57.074a.917.917,0,0,0,.917.917H-7.044a.915.915,0,0,0,.917-.917V26.133c0-7.786,4.256-12.819,10.84-12.819,6.492,0,10.212,4.523,10.212,12.4v31.36a.918.918,0,0,0,.92.917H28.47a.915.915,0,0,0,.917-.917V26.028c0-7.96,4.053-12.714,10.837-12.714,8.442,0,10.215,6.8,10.215,12.508V57.074a.914.914,0,0,0,.913.917H63.981a.915.915,0,0,0,.917-.917V21.966C64.9,8.211,57.35,0,44.7,0" transform="translate(20.586)"/></g><g transform="translate(810.471 61.588)"><path d="M25.17,21.886c0,7.723-4.5,12.714-11.462,12.714C6.718,34.6,2.871,30.158,2.871,22.1V-9.159a.918.918,0,0,0-.917-.92H-10.671a.92.92,0,0,0-.92.92v35c0,13.612,7.859,22.07,20.51,22.07A20.067,20.067,0,0,0,25.17,40.094V45.85a.918.918,0,0,0,.92.917H38.715a.914.914,0,0,0,.913-.917V-9.159a.917.917,0,0,0-.913-.92H26.089a.92.92,0,0,0-.92.92Z" transform="translate(11.591 10.079)"/></g><g transform="translate(869.622 60.444)"><path d="M44.7,0c-7.409,0-13.472,2.927-18.5,8.944C22.793,3.162,16.99,0,9.708,0,1.938,0-2.832,3.758-6.127,7.691V2.061a.917.917,0,0,0-.917-.917H-19.669a.917.917,0,0,0-.917.917V57.074a.915.915,0,0,0,.917.917H-7.044a.915.915,0,0,0,.917-.917V26.133c0-7.786,4.256-12.819,10.84-12.819,6.489,0,10.212,4.523,10.212,12.4v31.36a.915.915,0,0,0,.917.917H28.467a.915.915,0,0,0,.917-.917V26.028c0-7.96,4.053-12.714,10.84-12.714,8.442,0,10.215,6.8,10.215,12.508V57.074a.914.914,0,0,0,.913.917H63.978a.915.915,0,0,0,.917-.917V21.966C64.895,8.211,57.347,0,44.7,0" transform="translate(20.586)"/></g><g transform="translate(596.499 60.528)"><path d="M22.979,0H21.285C13.883.054,7.828,3.7,3.88,10.425V1.979a.915.915,0,0,0-.917-.917H-9.665a.917.917,0,0,0-.917.917V56.988a.92.92,0,0,0,.917.92H2.963a.918.918,0,0,0,.917-.92V36.047c0-13.006,6.267-20.567,17.218-20.83a.132.132,0,0,1,.019-.006h1.862a.751.751,0,0,0,.752-.752V.748A.751.751,0,0,0,22.979,0" transform="translate(10.582)"/></g><g transform="translate(788.028 61.956)"><path d="M9.166,0H-3.308a.916.916,0,0,0-.913.913V55.342a.914.914,0,0,0,.913.913H9.166a.914.914,0,0,0,.913-.913V.913A.916.916,0,0,0,9.166,0" transform="translate(4.221)"/></g><g transform="translate(786.287 37.173)"><path d="M6.13,0a8.947,8.947,0,1,0,8.947,8.944A8.949,8.949,0,0,0,6.13,0" transform="translate(2.823)"/></g><g transform="translate(0 -0.001)"><path d="M55.342,0a80.828,80.828,0,1,0,80.828,80.828A80.826,80.826,0,0,0,55.342,0M92.411,116.584a5.031,5.031,0,0,1-6.927,1.675c-18.981-11.6-42.872-14.221-71.006-7.792a5.036,5.036,0,1,1-2.242-9.819c30.789-7.041,57.2-4.012,78.5,9.007a5.037,5.037,0,0,1,1.671,6.93m9.892-22.01a6.305,6.305,0,0,1-8.668,2.074C71.913,83.3,38.79,79.43,13.092,87.231A6.3,6.3,0,1,1,9.429,75.174c29.358-8.909,65.853-4.6,90.8,10.735a6.3,6.3,0,0,1,2.074,8.664m.853-22.917c-26.057-15.474-69.03-16.9-93.9-9.346A7.56,7.56,0,1,1,4.862,47.842c28.553-8.668,76.014-6.993,106.01,10.812a7.56,7.56,0,0,1-7.716,13" transform="translate(25.486)"/></g></g></g></svg>